<svg width="57" height="102" viewBox="0 0 110 175" fill="none" xmlns="http://www.w3.org/2000/svg">
<g filter="url(#filter0_d_18_8)">
<g filter="url(#filter1_d_18_8)">
<path fill-rule="evenodd" clip-rule="evenodd" d="M18.1071 57.2802C42.1773 61.6756 71.4802 53.5127 79.0153 50.7917L73.7826 102.281C73.7826 102.281 45.1076 104.583 36.5261 106.886L18.1071 57.2802ZM42.1773 81.5597C40.2936 69.42 40.9215 64.3966 40.9215 64.3966C40.9215 64.3966 43.4332 68.792 45.3169 81.5597C47.2007 94.3274 46.1542 99.1415 46.1542 99.1415C46.1542 99.1415 44.0611 93.6995 42.1773 81.5597ZM32.3399 82.397C28.5724 70.8851 27.9445 64.8152 27.9445 64.8152C27.9445 64.8152 31.9213 70.2572 35.8981 82.397C39.875 94.5367 39.875 99.9787 39.875 99.9787C39.875 99.9787 36.1075 93.9088 32.3399 82.397ZM55.1543 80.5132C54.5264 67.1176 56 57.6988 56 57.6988C56 57.6988 57.666 65.2338 58.2939 80.5132C58.9219 95.7926 57.666 100.188 57.666 100.188C57.666 100.188 55.7823 93.9088 55.1543 80.5132ZM66.6662 75.9085C68.3407 64.8152 72.5268 57.6988 72.5268 57.6988C72.5268 57.6988 72.5268 60.8384 70.2244 77.5829C67.922 94.3274 65.4104 98.095 65.4104 98.095C65.4104 98.095 64.9917 87.0017 66.6662 75.9085Z" fill="#ECECEC"/>
<path d="M21.0373 54.7684C23.7583 51.4195 35.898 44.931 44.689 41.5821C53.4799 38.2332 71.1163 37.5358 73 38.5824C73 38.5824 66.6662 44 49.9763 49.0477C33.2864 54.0954 21.0373 54.7684 21.0373 54.7684Z" fill="#ECECEC"/>
<path d="M38.4098 41.1635C38.4098 41.1635 38.2005 38.6518 42.3867 37.396C46.5728 36.1401 48.0379 38.2332 48.0379 38.2332L38.4098 41.1635Z" fill="#ECECEC"/>
<path d="M82.5735 30.9075C84.0386 39.2797 73.5733 42.4193 73.5733 42.4193C79.8525 35.7216 77.9688 28.1866 76.2943 18.3491C74.6199 8.51158 84.6666 6 84.6666 6C77.5501 14.5816 81.1084 22.5352 82.5735 30.9075Z" fill="#ECECEC"/>
<path d="M76.7129 45.7683C79.8525 42.4193 82 41 84.5 37.5C87 34 93.0388 35.7216 93.0388 35.7216C87.5 37.5 85.5 41 85.5 41C82.5 46.5 76.7129 45.7683 76.7129 45.7683Z" fill="#ECECEC"/>
<path d="M80.7442 60.535L82 53C82 53 92.0467 49.2324 91.4188 54.4651C90.7909 59.6979 80.7442 60.535 80.7442 60.535Z" fill="#ECECEC"/>
<path d="M15.8047 59.3733L18.5257 66.4897C18.5257 66.4897 7.43246 68.3734 7.01385 63.3501C6.59524 58.3267 15.8047 59.3733 15.8047 59.3733Z" fill="#ECECEC"/>
<path fill-rule="evenodd" clip-rule="evenodd" d="M36.5261 110.235C66.6662 110.863 74.6198 106.258 74.6198 106.258L77 135C61.0927 137.302 62.5 144.5 62.5 144.5C61.9977 144.5 55 144.5 55 144.5C51.5 139.5 48.6658 139.119 48.6658 139.119C48.2472 135.352 48.2472 133.468 47.2007 127.398C46.1542 121.328 44.2006 119.444 42.8053 115.677C42.8053 115.677 42.8053 121.328 43.6425 127.398C44.4797 133.468 46 137.5 46 137.5L39 134.5L40 138.5L38.2005 137.863L36.5261 110.235ZM53.8985 129.282C52.6427 121.328 53.6892 118.398 53.6892 118.398C53.6892 118.398 56.6195 120.909 58.0846 129.072C59.5498 137.235 57.8753 140.375 57.8753 140.375C57.8753 140.375 55.1543 137.235 53.8985 129.282ZM62.8987 126.142C63.3173 118.816 66.0383 116.514 66.0383 116.514C66.0383 116.514 66.6662 121.119 66.2476 126.77C65.829 132.421 63.9452 136.607 63.9452 136.607C63.9452 136.607 62.4801 133.468 62.8987 126.142Z" fill="#ECECEC"/>
<path fill-rule="evenodd" clip-rule="evenodd" d="M18.1071 57.2802C42.1773 61.6756 71.4802 53.5127 79.0153 50.7917L73.7826 102.281C73.7826 102.281 45.1076 104.583 36.5261 106.886L18.1071 57.2802ZM42.1773 81.5597C40.2936 69.42 40.9215 64.3966 40.9215 64.3966C40.9215 64.3966 43.4332 68.792 45.3169 81.5597C47.2007 94.3274 46.1542 99.1415 46.1542 99.1415C46.1542 99.1415 44.0611 93.6995 42.1773 81.5597ZM32.3399 82.397C28.5724 70.8851 27.9445 64.8152 27.9445 64.8152C27.9445 64.8152 31.9213 70.2572 35.8981 82.397C39.875 94.5367 39.875 99.9787 39.875 99.9787C39.875 99.9787 36.1075 93.9088 32.3399 82.397ZM55.1543 80.5132C54.5264 67.1176 56 57.6988 56 57.6988C56 57.6988 57.666 65.2338 58.2939 80.5132C58.9219 95.7926 57.666 100.188 57.666 100.188C57.666 100.188 55.7823 93.9088 55.1543 80.5132ZM66.6662 75.9085C68.3407 64.8152 72.5268 57.6988 72.5268 57.6988C72.5268 57.6988 72.5268 60.8384 70.2244 77.5829C67.922 94.3274 65.4104 98.095 65.4104 98.095C65.4104 98.095 64.9917 87.0017 66.6662 75.9085Z" stroke="#ECECEC" stroke-width="6"/>
<path d="M21.0373 54.7684C23.7583 51.4195 35.898 44.931 44.689 41.5821C53.4799 38.2332 71.1163 37.5358 73 38.5824C73 38.5824 66.6662 44 49.9763 49.0477C33.2864 54.0954 21.0373 54.7684 21.0373 54.7684Z" stroke="#ECECEC" stroke-width="6"/>
<path d="M38.4098 41.1635C38.4098 41.1635 38.2005 38.6518 42.3867 37.396C46.5728 36.1401 48.0379 38.2332 48.0379 38.2332L38.4098 41.1635Z" stroke="#ECECEC" stroke-width="6"/>
<path d="M82.5735 30.9075C84.0386 39.2797 73.5733 42.4193 73.5733 42.4193C79.8525 35.7216 77.9688 28.1866 76.2943 18.3491C74.6199 8.51158 84.6666 6 84.6666 6C77.5501 14.5816 81.1084 22.5352 82.5735 30.9075Z" stroke="#ECECEC" stroke-width="6"/>
<path d="M76.7129 45.7683C79.8525 42.4193 82 41 84.5 37.5C87 34 93.0388 35.7216 93.0388 35.7216C87.5 37.5 85.5 41 85.5 41C82.5 46.5 76.7129 45.7683 76.7129 45.7683Z" stroke="#ECECEC" stroke-width="6"/>
<path d="M80.7442 60.535L82 53C82 53 92.0467 49.2324 91.4188 54.4651C90.7909 59.6979 80.7442 60.535 80.7442 60.535Z" stroke="#ECECEC" stroke-width="6"/>
<path d="M15.8047 59.3733L18.5257 66.4897C18.5257 66.4897 7.43246 68.3734 7.01385 63.3501C6.59524 58.3267 15.8047 59.3733 15.8047 59.3733Z" stroke="#ECECEC" stroke-width="6"/>
<path fill-rule="evenodd" clip-rule="evenodd" d="M36.5261 110.235C66.6662 110.863 74.6198 106.258 74.6198 106.258L77 135C61.0927 137.302 62.5 144.5 62.5 144.5C61.9977 144.5 55 144.5 55 144.5C51.5 139.5 48.6658 139.119 48.6658 139.119C48.2472 135.352 48.2472 133.468 47.2007 127.398C46.1542 121.328 44.2006 119.444 42.8053 115.677C42.8053 115.677 42.8053 121.328 43.6425 127.398C44.4797 133.468 46 137.5 46 137.5L39 134.5L40 138.5L38.2005 137.863L36.5261 110.235ZM53.8985 129.282C52.6427 121.328 53.6892 118.398 53.6892 118.398C53.6892 118.398 56.6195 120.909 58.0846 129.072C59.5498 137.235 57.8753 140.375 57.8753 140.375C57.8753 140.375 55.1543 137.235 53.8985 129.282ZM62.8987 126.142C63.3173 118.816 66.0383 116.514 66.0383 116.514C66.0383 116.514 66.6662 121.119 66.2476 126.77C65.829 132.421 63.9452 136.607 63.9452 136.607C63.9452 136.607 62.4801 133.468 62.8987 126.142Z" stroke="#ECECEC" stroke-width="6"/>
<path d="M66.7323 155.035C66.7323 155.035 70.5 143.524 78.0348 142.896C78.0348 142.896 74.8952 147.291 75.1045 150.64C75.3138 153.989 76.5697 155.663 81.3837 156.291C86.1978 156.919 88.0815 151.477 88.5001 149.384C88.9187 147.291 88.5001 143.524 88.5001 143.524C85.5698 150.221 81.3837 150.64 81.3837 150.64C81.3837 150.64 85.5698 145.407 85.7791 141.64C85.9885 137.872 85.5698 132.012 82.4302 129.5C82.4302 129.5 83.2675 136.198 75.9417 137.872C68.616 139.547 68.616 139.547 66.9416 141.221C65.2671 142.896 63.802 145.617 64.2206 148.966C64.6392 152.314 66.7323 155.035 66.7323 155.035Z" fill="#ECECEC"/>
<path d="M31.9768 136C34.9071 141.861 44.7445 143.116 44.7445 143.116L42.8608 139.14C42.8608 139.14 52.2794 142.279 53.954 147.512C55.6286 152.745 52.4889 156.303 52.4889 156.303C52.2797 152.745 42.2328 147.93 42.2328 147.93L43.4887 151.698C44.326 154 37.2095 146.884 37.2095 146.884C37.2095 146.884 34.907 158.186 43.2794 163.21C43.2794 163.21 33.6514 164.466 30.3024 158.186C26.9534 151.907 28 146.465 28 146.465C31.1396 150.442 31.7675 150.024 31.7675 150.024C28.8372 139.767 31.9768 136 31.9768 136Z" fill="#ECECEC"/>
<path d="M66.7323 155.035C66.7323 155.035 70.5 143.524 78.0348 142.896C78.0348 142.896 74.8952 147.291 75.1045 150.64C75.3138 153.989 76.5697 155.663 81.3837 156.291C86.1978 156.919 88.0815 151.477 88.5001 149.384C88.9187 147.291 88.5001 143.524 88.5001 143.524C85.5698 150.221 81.3837 150.64 81.3837 150.64C81.3837 150.64 85.5698 145.407 85.7791 141.64C85.9885 137.872 85.5698 132.012 82.4302 129.5C82.4302 129.5 83.2675 136.198 75.9417 137.872C68.616 139.547 68.616 139.547 66.9416 141.221C65.2671 142.896 63.802 145.617 64.2206 148.966C64.6392 152.314 66.7323 155.035 66.7323 155.035Z" stroke="#ECECEC" stroke-width="6"/>
<path d="M31.9768 136C34.9071 141.861 44.7445 143.116 44.7445 143.116L42.8608 139.14C42.8608 139.14 52.2794 142.279 53.954 147.512C55.6286 152.745 52.4889 156.303 52.4889 156.303C52.2797 152.745 42.2328 147.93 42.2328 147.93L43.4887 151.698C44.326 154 37.2095 146.884 37.2095 146.884C37.2095 146.884 34.907 158.186 43.2794 163.21C43.2794 163.21 33.6514 164.466 30.3024 158.186C26.9534 151.907 28 146.465 28 146.465C31.1396 150.442 31.7675 150.024 31.7675 150.024C28.8372 139.767 31.9768 136 31.9768 136Z" stroke="#ECECEC" stroke-width="6"/>
</g>
<path fill-rule="evenodd" clip-rule="evenodd" d="M18.1071 57.2802C42.1773 61.6756 71.4802 53.5127 79.0153 50.7917L73.7826 102.281C73.7826 102.281 45.1076 104.583 36.5261 106.886L18.1071 57.2802ZM42.1773 81.5597C40.2936 69.42 40.9215 64.3966 40.9215 64.3966C40.9215 64.3966 43.4332 68.792 45.3169 81.5597C47.2007 94.3274 46.1542 99.1415 46.1542 99.1415C46.1542 99.1415 44.0611 93.6995 42.1773 81.5597ZM32.3399 82.397C28.5724 70.8851 27.9445 64.8152 27.9445 64.8152C27.9445 64.8152 31.9213 70.2572 35.8981 82.397C39.875 94.5367 39.875 99.9787 39.875 99.9787C39.875 99.9787 36.1075 93.9088 32.3399 82.397ZM55.1543 80.5132C54.5264 67.1176 55.9916 61.6756 55.9916 61.6756C55.9916 61.6756 57.666 65.2338 58.2939 80.5132C58.9219 95.7926 57.666 100.188 57.666 100.188C57.666 100.188 55.7823 93.9088 55.1543 80.5132ZM66.6662 75.9085C68.3407 64.8152 72.5268 57.6988 72.5268 57.6988C72.5268 57.6988 72.5268 60.8384 70.2244 77.5829C67.922 94.3274 65.4104 98.095 65.4104 98.095C65.4104 98.095 64.9917 87.0017 66.6662 75.9085Z" fill="#11203D"/>
<path d="M21.0373 54.7684C23.7583 51.4195 35.898 44.931 44.689 41.5821C53.4799 38.2332 71.1163 37.5358 73 38.5824C73 38.5824 66.6662 44 49.9763 49.0477C33.2864 54.0954 21.0373 54.7684 21.0373 54.7684Z" fill="#11203D"/>
<path d="M38.4098 41.1635C38.4098 41.1635 38.2005 38.6518 42.3867 37.396C46.5728 36.1401 48.0379 38.2332 48.0379 38.2332L38.4098 41.1635Z" fill="#11203D"/>
<path d="M82.5735 30.9075C84.0386 39.2797 73.5733 42.4193 73.5733 42.4193C79.8525 35.7216 77.9688 28.1866 76.2943 18.3491C74.6199 8.51158 84.6666 6 84.6666 6C77.5501 14.5816 81.1084 22.5352 82.5735 30.9075Z" fill="#11203D"/>
<path d="M76.7129 45.7683C79.8525 42.4193 82 41 84.5 37.5C87 34 93.0388 35.7216 93.0388 35.7216C87.5 37.5 85.5 41 85.5 41C82.5 46.5 76.7129 45.7683 76.7129 45.7683Z" fill="#11203D"/>
<path d="M80.7442 60.535L82 53C82 53 92.0467 49.2324 91.4188 54.4651C90.7909 59.6979 80.7442 60.535 80.7442 60.535Z" fill="#11203D"/>
<path d="M15.8047 59.3733L18.5257 66.4897C18.5257 66.4897 7.43246 68.3734 7.01385 63.3501C6.59524 58.3267 15.8047 59.3733 15.8047 59.3733Z" fill="#11203D"/>
<path fill-rule="evenodd" clip-rule="evenodd" d="M36.5261 110.235C66.6662 110.863 74.6198 106.258 74.6198 106.258L77 135C61.0927 137.302 62.5 144.5 62.5 144.5C61.9977 144.5 55 144.5 55 144.5C51.5 139.5 48.6658 139.119 48.6658 139.119C48.2472 135.352 48.2472 133.468 47.2007 127.398C46.1542 121.328 44.2006 119.444 42.8053 115.677C42.8053 115.677 42.8053 121.328 43.6425 127.398C44.4797 133.468 46 137.5 46 137.5L39 134.5L40 138.5L38.2005 137.863L36.5261 110.235ZM53.8985 129.282C52.6427 121.328 53.6892 118.398 53.6892 118.398C53.6892 118.398 56.6195 120.909 58.0846 129.072C59.5498 137.235 57.8753 140.375 57.8753 140.375C57.8753 140.375 55.1543 137.235 53.8985 129.282ZM62.8987 126.142C63.3173 118.816 66.0383 116.514 66.0383 116.514C66.0383 116.514 66.6662 121.119 66.2476 126.77C65.829 132.421 63.9452 136.607 63.9452 136.607C63.9452 136.607 62.4801 133.468 62.8987 126.142Z" fill="#11203D"/>
<path fill-rule="evenodd" clip-rule="evenodd" d="M18.1071 57.2802C42.1773 61.6756 71.4802 53.5127 79.0153 50.7917L73.7826 102.281C73.7826 102.281 45.1076 104.583 36.5261 106.886L18.1071 57.2802ZM42.1773 81.5597C40.2936 69.42 40.9215 64.3966 40.9215 64.3966C40.9215 64.3966 43.4332 68.792 45.3169 81.5597C47.2007 94.3274 46.1542 99.1415 46.1542 99.1415C46.1542 99.1415 44.0611 93.6995 42.1773 81.5597ZM32.3399 82.397C28.5724 70.8851 27.9445 64.8152 27.9445 64.8152C27.9445 64.8152 31.9213 70.2572 35.8981 82.397C39.875 94.5367 39.875 99.9787 39.875 99.9787C39.875 99.9787 36.1075 93.9088 32.3399 82.397ZM55.1543 80.5132C54.5264 67.1176 55.9916 61.6756 55.9916 61.6756C55.9916 61.6756 57.666 65.2338 58.2939 80.5132C58.9219 95.7926 57.666 100.188 57.666 100.188C57.666 100.188 55.7823 93.9088 55.1543 80.5132ZM66.6662 75.9085C68.3407 64.8152 72.5268 57.6988 72.5268 57.6988C72.5268 57.6988 72.5268 60.8384 70.2244 77.5829C67.922 94.3274 65.4104 98.095 65.4104 98.095C65.4104 98.095 64.9917 87.0017 66.6662 75.9085Z" stroke="#11203D"/>
<path d="M21.0373 54.7684C23.7583 51.4195 35.898 44.931 44.689 41.5821C53.4799 38.2332 71.1163 37.5358 73 38.5824C73 38.5824 66.6662 44 49.9763 49.0477C33.2864 54.0954 21.0373 54.7684 21.0373 54.7684Z" stroke="#11203D"/>
<path d="M38.4098 41.1635C38.4098 41.1635 38.2005 38.6518 42.3867 37.396C46.5728 36.1401 48.0379 38.2332 48.0379 38.2332L38.4098 41.1635Z" stroke="#11203D"/>
<path d="M82.5735 30.9075C84.0386 39.2797 73.5733 42.4193 73.5733 42.4193C79.8525 35.7216 77.9688 28.1866 76.2943 18.3491C74.6199 8.51158 84.6666 6 84.6666 6C77.5501 14.5816 81.1084 22.5352 82.5735 30.9075Z" stroke="#11203D"/>
<path d="M76.7129 45.7683C79.8525 42.4193 82 41 84.5 37.5C87 34 93.0388 35.7216 93.0388 35.7216C87.5 37.5 85.5 41 85.5 41C82.5 46.5 76.7129 45.7683 76.7129 45.7683Z" stroke="#11203D"/>
<path d="M80.7442 60.535L82 53C82 53 92.0467 49.2324 91.4188 54.4651C90.7909 59.6979 80.7442 60.535 80.7442 60.535Z" stroke="#11203D"/>
<path d="M15.8047 59.3733L18.5257 66.4897C18.5257 66.4897 7.43246 68.3734 7.01385 63.3501C6.59524 58.3267 15.8047 59.3733 15.8047 59.3733Z" stroke="#11203D"/>
<path fill-rule="evenodd" clip-rule="evenodd" d="M36.5261 110.235C66.6662 110.863 74.6198 106.258 74.6198 106.258L77 135C61.0927 137.302 62.5 144.5 62.5 144.5C61.9977 144.5 55 144.5 55 144.5C51.5 139.5 48.6658 139.119 48.6658 139.119C48.2472 135.352 48.2472 133.468 47.2007 127.398C46.1542 121.328 44.2006 119.444 42.8053 115.677C42.8053 115.677 42.8053 121.328 43.6425 127.398C44.4797 133.468 46 137.5 46 137.5L39 134.5L40 138.5L38.2005 137.863L36.5261 110.235ZM53.8985 129.282C52.6427 121.328 53.6892 118.398 53.6892 118.398C53.6892 118.398 56.6195 120.909 58.0846 129.072C59.5498 137.235 57.8753 140.375 57.8753 140.375C57.8753 140.375 55.1543 137.235 53.8985 129.282ZM62.8987 126.142C63.3173 118.816 66.0383 116.514 66.0383 116.514C66.0383 116.514 66.6662 121.119 66.2476 126.77C65.829 132.421 63.9452 136.607 63.9452 136.607C63.9452 136.607 62.4801 133.468 62.8987 126.142Z" stroke="#11203D"/>
<path d="M66.7323 155.035C66.7323 155.035 66 145.5 78.0348 142.896C78.0348 142.896 74.8952 147.291 75.1045 150.64C75.3138 153.989 76.5697 155.663 81.3837 156.291C86.1978 156.919 88.0815 151.477 88.5001 149.384C88.9187 147.291 88.5001 143.524 88.5001 143.524C85.5698 150.221 81.3837 150.64 81.3837 150.64C81.3837 150.64 85.5698 145.407 85.7791 141.64C85.9885 137.872 85.5698 132.012 82.4302 129.5C82.4302 129.5 83.2675 136.198 75.9417 137.872C68.616 139.547 68.616 139.547 66.9416 141.221C65.2671 142.896 63.802 145.617 64.2206 148.966C64.6392 152.314 66.7323 155.035 66.7323 155.035Z" fill="#F8A30A"/>
<path d="M31.9768 136C34.9071 141.861 44.7445 143.116 44.7445 143.116L42.8608 139.14C42.8608 139.14 52.2794 142.279 53.954 147.512C55.6286 152.745 52.4889 156.303 52.4889 156.303C52.2797 152.745 42.2328 147.93 42.2328 147.93L43.4887 151.698C44.326 154 37.2095 146.884 37.2095 146.884C37.2095 146.884 34.907 158.186 43.2794 163.21C43.2794 163.21 33.6514 164.466 30.3024 158.186C26.9534 151.907 28 146.465 28 146.465C31.1396 150.442 31.7675 150.024 31.7675 150.024C28.8372 139.767 31.9768 136 31.9768 136Z" fill="#F8A30A"/>
<path d="M66.7323 155.035C66.7323 155.035 66 145.5 78.0348 142.896C78.0348 142.896 74.8952 147.291 75.1045 150.64C75.3138 153.989 76.5697 155.663 81.3837 156.291C86.1978 156.919 88.0815 151.477 88.5001 149.384C88.9187 147.291 88.5001 143.524 88.5001 143.524C85.5698 150.221 81.3837 150.64 81.3837 150.64C81.3837 150.64 85.5698 145.407 85.7791 141.64C85.9885 137.872 85.5698 132.012 82.4302 129.5C82.4302 129.5 83.2675 136.198 75.9417 137.872C68.616 139.547 68.616 139.547 66.9416 141.221C65.2671 142.896 63.802 145.617 64.2206 148.966C64.6392 152.314 66.7323 155.035 66.7323 155.035Z" stroke="#F8A30A"/>
<path d="M31.9768 136C34.9071 141.861 44.7445 143.116 44.7445 143.116L42.8608 139.14C42.8608 139.14 52.2794 142.279 53.954 147.512C55.6286 152.745 52.4889 156.303 52.4889 156.303C52.2797 152.745 42.2328 147.93 42.2328 147.93L43.4887 151.698C44.326 154 37.2095 146.884 37.2095 146.884C37.2095 146.884 34.907 158.186 43.2794 163.21C43.2794 163.21 33.6514 164.466 30.3024 158.186C26.9534 151.907 28 146.465 28 146.465C31.1396 150.442 31.7675 150.024 31.7675 150.024C28.8372 139.767 31.9768 136 31.9768 136Z" stroke="#F8A30A"/>
</g>
<defs>
<filter id="filter0_d_18_8" x="3.86" y="0.869873" width="105.663" height="172.583" filterUnits="userSpaceOnUse" color-interpolation-filters="sRGB">
<feFlood flood-opacity="0" result="BackgroundImageFix"/>
<feColorMatrix in="SourceAlpha" type="matrix" values="0 0 0 0 0 0 0 0 0 0 0 0 0 0 0 0 0 0 127 0" result="hardAlpha"/>
<feOffset dx="3" dy="4"/>
<feGaussianBlur stdDeviation="1.57"/>
<feComposite in2="hardAlpha" operator="out"/>
<feColorMatrix type="matrix" values="0 0 0 0 0 0 0 0 0 0 0 0 0 0 0 0 0 0 0.25 0"/>
<feBlend mode="normal" in2="BackgroundImageFix" result="effect1_dropShadow_18_8"/>
<feBlend mode="normal" in="SourceGraphic" in2="effect1_dropShadow_18_8" result="shape"/>
</filter>
<filter id="filter1_d_18_8" x="0" y="0.869873" width="107.383" height="173.443" filterUnits="userSpaceOnUse" color-interpolation-filters="sRGB">
<feFlood flood-opacity="0" result="BackgroundImageFix"/>
<feColorMatrix in="SourceAlpha" type="matrix" values="0 0 0 0 0 0 0 0 0 0 0 0 0 0 0 0 0 0 127 0" result="hardAlpha"/>
<feOffset dy="4"/>
<feGaussianBlur stdDeviation="2"/>
<feComposite in2="hardAlpha" operator="out"/>
<feColorMatrix type="matrix" values="0 0 0 0 0 0 0 0 0 0 0 0 0 0 0 0 0 0 0.25 0"/>
<feBlend mode="normal" in2="BackgroundImageFix" result="effect1_dropShadow_18_8"/>
<feBlend mode="normal" in="SourceGraphic" in2="effect1_dropShadow_18_8" result="shape"/>
</filter>
</defs>
</svg>
